<?xml version="1.0" standalone="no"?>
<!DOCTYPE svg PUBLIC "-//W3C//DTD SVG 20010904//EN"
 "http://www.w3.org/TR/2001/REC-SVG-20010904/DTD/svg10.dtd">
<svg version="1.0" xmlns="http://www.w3.org/2000/svg"
 width="840.000000pt" height="859.000000pt" viewBox="0 0 840.000000 859.000000"
 preserveAspectRatio="xMidYMid meet">
<metadata>
Created by potrace 1.16, written by Peter Selinger 2001-2019
</metadata>
<g transform="translate(0.000000,859.000000) scale(0.100000,-0.100000)"
fill="#000000" stroke="none">
<path d="M3960 8464 c-612 -45 -1121 -183 -1635 -444 -479 -242 -883 -552
-1233 -945 -526 -590 -871 -1306 -1001 -2076 -44 -262 -56 -406 -56 -704 0
-298 12 -442 56 -704 187 -1104 817 -2092 1745 -2733 580 -401 1256 -647 1974
-720 162 -16 628 -16 795 0 1889 188 3414 1616 3719 3482 40 246 51 386 51
675 0 371 -31 639 -111 975 -216 906 -753 1742 -1484 2312 -458 356 -985 616
-1535 756 -183 47 -458 96 -625 112 -119 12 -564 21 -660 14z m3048 -2090 c12
-4 22 -9 22 -13 0 -8 -213 -191 -1910 -1641 -69 -59 -300 -250 -513 -424
l-389 -316 -76 63 c-43 35 -223 182 -402 328 -179 145 -624 520 -990 833 -366
312 -819 699 -1007 860 -188 160 -342 294 -342 298 -1 4 9 9 22 11 35 7 5559
7 5585 1z m-5620 -457 c130 -112 583 -499 1006 -862 l769 -658 -99 -96 c-55
-52 -153 -147 -219 -210 -66 -64 -178 -172 -250 -241 -71 -69 -236 -227 -365
-351 -129 -124 -406 -389 -615 -590 -440 -423 -463 -444 -473 -435 -9 9 -15
3543 -7 3604 4 23 8 42 11 42 3 0 112 -91 242 -203z m5920 -1591 c1 -975 -1
-1791 -6 -1812 -4 -22 -13 -39 -18 -39 -6 0 -348 324 -760 720 -1202 1155
-1245 1197 -1242 1206 2 3 453 392 1003 862 679 582 1003 853 1010 846 7 -7
11 -595 13 -1783z m-3498 -455 c199 -162 373 -303 386 -313 l24 -19 387 316
c214 173 393 314 400 313 6 -2 107 -95 225 -208 619 -593 1227 -1177 1333
-1280 66 -64 197 -190 290 -279 94 -90 171 -166 173 -171 2 -4 -7 -10 -20 -14
-30 -8 -5546 -8 -5576 0 -13 4 -21 11 -20 16 7 19 2014 1938 2025 1936 6 -2
175 -135 373 -297z"/>
</g>
</svg>
